<svg width="24" height="24" viewBox="0 0 24 24" fill="none" xmlns="http://www.w3.org/2000/svg">
<path d="M11.1819 10.9572H17.2063M10.8809 7.75459V14.6854C10.8809 15.0881 11.2074 15.4146 11.6103 15.4146H16.5161C16.7675 15.4146 17.0012 15.5442 17.1345 15.7573L19.8873 20.1605M16.8057 19.6252C15.5781 21.0777 13.743 22 11.6923 22C7.99621 22 5 19.0038 5 15.3077C5 12.8275 6.34943 10.6622 8.35418 9.50628M12.8631 3.68135C12.8631 4.60993 12.1103 5.3627 11.1818 5.3627C10.2532 5.3627 9.50045 4.60993 9.50045 3.68135C9.50045 2.75277 10.2532 2 11.1818 2C12.1103 2 12.8631 2.75277 12.8631 3.68135Z" stroke="#333333" stroke-width="1.5" stroke-miterlimit="10" stroke-linecap="round" stroke-linejoin="round"/>
</svg>
