<svg width="44" height="44" viewBox="0 0 44 44" fill="none" xmlns="http://www.w3.org/2000/svg">
<rect x="0.75" y="0.75" width="42.5" height="42.5" rx="5.25" stroke="#B4915A" stroke-width="1.5"/>
<path d="M21.1819 20.9572H27.2063M20.8809 17.7546V24.6854C20.8809 25.0881 21.2074 25.4146 21.6103 25.4146H26.5161C26.7675 25.4146 27.0012 25.5442 27.1345 25.7573L29.8873 30.1605M26.8057 29.6252C25.5781 31.0777 23.743 32 21.6923 32C17.9962 32 15 29.0038 15 25.3077C15 22.8275 16.3494 20.6622 18.3542 19.5063M22.8631 13.6813C22.8631 14.6099 22.1103 15.3627 21.1818 15.3627C20.2532 15.3627 19.5004 14.6099 19.5004 13.6813C19.5004 12.7528 20.2532 12 21.1818 12C22.1103 12 22.8631 12.7528 22.8631 13.6813Z" stroke="#936D2F" stroke-width="1.5" stroke-miterlimit="10" stroke-linecap="round" stroke-linejoin="round"/>
</svg>
